<svg width="301" height="63" viewBox="0 0 301 63" fill="none" xmlns="http://www.w3.org/2000/svg">
<path d="M134 24.5833L133.575 27.0417H128.688C128.406 27.0417 128.135 27.1712 127.936 27.4017C127.737 27.6322 127.625 27.9448 127.625 28.2708C127.625 28.5968 127.737 28.9095 127.936 29.14C128.135 29.3705 128.406 29.5 128.688 29.5H133.15L131.025 41.7917H126.563C126.281 41.7917 126.01 41.9212 125.811 42.1517C125.612 42.3822 125.5 42.6948 125.5 43.0208C125.5 43.3468 125.612 43.6595 125.811 43.89C126.01 44.1205 126.281 44.25 126.563 44.25H130.6L129.75 49.1667C129.75 50.4706 129.302 51.7212 128.505 52.6433C127.708 53.5653 126.627 54.0833 125.5 54.0833C124.373 54.0833 123.292 53.5653 122.495 52.6433C121.698 51.7212 121.25 50.4706 121.25 49.1667L119.125 36.875H122.313C122.594 36.875 122.865 36.7455 123.064 36.515C123.263 36.2845 123.375 35.9718 123.375 35.6458C123.375 35.3198 123.263 35.0072 123.064 34.7767C122.865 34.5462 122.594 34.4167 122.313 34.4167H118.7L117 24.5833C117 21.6333 118.976 19.1012 121.866 17.9212L118.912 12.98C118.754 12.714 118.643 12.4143 118.585 12.0983C118.527 11.7823 118.523 11.4561 118.574 11.1385C118.626 10.821 118.731 10.5183 118.884 10.2479C119.037 9.97745 119.234 9.74467 119.465 9.56291C119.694 9.37869 119.952 9.24844 120.224 9.17963C120.496 9.11081 120.778 9.10477 121.052 9.16185C121.326 9.21893 121.588 9.33801 121.823 9.51228C122.057 9.68655 122.26 9.9126 122.419 10.1775L123.375 11.8V7.37499C123.375 6.723 123.599 6.09771 123.997 5.63669C124.396 5.17566 124.936 4.91666 125.5 4.91666C126.064 4.91666 126.604 5.17566 127.003 5.63669C127.401 6.09771 127.625 6.723 127.625 7.37499V12.98L130.813 8.70249C131.514 7.66999 132.874 7.54707 133.766 8.43207C134.659 9.29249 134.765 10.8412 134 11.8983L129.474 18.0687C132.173 19.2979 134 21.7562 134 24.5833Z" fill="white"/>
<path d="M142.703 51V16.6641H150.203L160.586 41.4609L171.039 16.6641H178.445V51H172.586V34.0312L172.773 24.3047L171.906 26.8828L163.117 48.6562H157.68L149.078 26.7656L148.211 24.1875L148.422 34.125V51H142.703ZM192.086 51.4922C189.695 51.4922 187.758 50.8359 186.273 49.5234C184.805 48.1953 184.07 46.2891 184.07 43.8047C184.07 41.1328 184.945 39.1562 186.695 37.875C188.445 36.5781 191.086 35.7578 194.617 35.4141C195.102 35.3516 195.625 35.2891 196.188 35.2266C196.75 35.1641 197.383 35.1016 198.086 35.0391C198.789 34.9766 199.344 34.9219 199.75 34.875V33.5156C199.75 31.9531 199.391 30.8203 198.672 30.1172C197.953 29.3984 196.859 29.0391 195.391 29.0391C193.297 29.0391 190.711 29.625 187.633 30.7969C187.617 30.75 187.359 30.0391 186.859 28.6641C186.359 27.2891 186.102 26.5859 186.086 26.5547C189.117 25.2578 192.398 24.6094 195.93 24.6094C199.398 24.6094 201.922 25.3672 203.5 26.8828C205.078 28.3828 205.867 30.8203 205.867 34.1953V51H201.32C201.305 50.9375 201.133 50.4141 200.805 49.4297C200.477 48.4453 200.312 47.9219 200.312 47.8594C199.031 49.1094 197.773 50.0312 196.539 50.625C195.32 51.2031 193.836 51.4922 192.086 51.4922ZM193.75 47.1328C195.172 47.1328 196.406 46.7969 197.453 46.125C198.516 45.4375 199.273 44.6094 199.727 43.6406V38.6719C199.68 38.6719 199.266 38.7031 198.484 38.7656C197.719 38.8281 197.305 38.8594 197.242 38.8594C194.758 39.0781 192.938 39.5469 191.781 40.2656C190.625 40.9844 190.047 42.1406 190.047 43.7344C190.047 44.8281 190.367 45.6719 191.008 46.2656C191.648 46.8438 192.562 47.1328 193.75 47.1328ZM212.078 51V25.2422H217.234L218.031 29.1797C219.719 26.4766 222.164 25.125 225.367 25.125C226.039 25.125 226.586 25.1562 227.008 25.2188L226.914 30.3516C226.289 30.2578 225.641 30.2109 224.969 30.2109C222.703 30.2109 221.008 30.8125 219.883 32.0156C218.773 33.2188 218.219 34.8906 218.219 37.0312V51H212.078ZM230.758 51V15.75L236.898 15.3516V31.1719L236.758 36.375C236.773 36.3594 236.93 36.2031 237.227 35.9062C237.539 35.6094 237.711 35.4453 237.742 35.4141C238.602 34.3984 239.531 33.3516 240.531 32.2734C241.547 31.1953 242.82 29.875 244.352 28.3125C245.898 26.75 246.906 25.7266 247.375 25.2422H254.688L244.094 36.2109L255.367 51H247.938L239.453 39.3047L236.898 41.3203V51H230.758ZM269.289 51.4922C265.148 51.4922 261.922 50.3047 259.609 47.9297C257.312 45.5391 256.164 42.2422 256.164 38.0391C256.164 33.9453 257.25 30.6875 259.422 28.2656C261.594 25.8438 264.555 24.625 268.305 24.6094C271.852 24.6094 274.602 25.7188 276.555 27.9375C278.523 30.1562 279.508 33.1016 279.508 36.7734C279.508 37.0391 279.5 37.4688 279.484 38.0625C279.484 38.6562 279.484 39.0938 279.484 39.375H262.352C262.414 41.7812 263.07 43.6484 264.32 44.9766C265.586 46.2891 267.32 46.9453 269.523 46.9453C272.336 46.9453 275.039 46.2109 277.633 44.7422L278.5 49.1016C275.922 50.6953 272.852 51.4922 269.289 51.4922ZM262.469 35.5078H273.719C273.719 33.4141 273.242 31.8047 272.289 30.6797C271.336 29.5547 270.016 28.9922 268.328 28.9922C266.75 28.9922 265.414 29.5391 264.32 30.6328C263.242 31.7266 262.625 33.3516 262.469 35.5078ZM294.812 51.3516C293.062 51.3516 291.602 51.1484 290.43 50.7422C289.273 50.3203 288.367 49.6641 287.711 48.7734C287.055 47.8828 286.586 46.8359 286.305 45.6328C286.039 44.4141 285.906 42.9141 285.906 41.1328V28.9688H281.688L281.922 25.6406L286.328 25.2422L288.297 18.2578L292.047 18.2344V25.2422H298.445V28.9688H292.047V41.25C292.047 43.2031 292.328 44.5938 292.891 45.4219C293.453 46.25 294.492 46.6641 296.008 46.6641C296.898 46.6641 297.852 46.5859 298.867 46.4297L299.031 50.8359C299 50.8359 298.805 50.875 298.445 50.9531C298.102 51.0156 297.766 51.0703 297.438 51.1172C297.125 51.1797 296.719 51.2344 296.219 51.2812C295.719 51.3281 295.25 51.3516 294.812 51.3516Z" fill="#FFFEFE"/>
<path d="M3.53906 49V14.5703H14.9766C17.6797 14.5703 19.9922 14.9219 21.9141 15.625C23.8359 16.3125 25.3516 17.4375 26.4609 19C27.5859 20.5625 28.1484 22.5234 28.1484 24.8828C28.1484 26.5234 27.9375 27.9844 27.5156 29.2656C27.0938 30.5312 26.3984 31.6875 25.4297 32.7344C24.4609 33.7656 23.0938 34.5625 21.3281 35.125C19.5781 35.6875 17.4609 35.9688 14.9766 35.9688C12.8516 35.9688 11.125 35.9062 9.79688 35.7812V49H3.53906ZM14.2969 31.375C15.5938 31.375 16.7188 31.25 17.6719 31C18.6406 30.75 19.3906 30.4297 19.9219 30.0391C20.4688 29.6484 20.8984 29.1641 21.2109 28.5859C21.5391 28.0078 21.75 27.4531 21.8438 26.9219C21.9531 26.375 22.0078 25.7656 22.0078 25.0938C22.0078 23.2031 21.3984 21.7656 20.1797 20.7812C18.9609 19.7969 17.2422 19.3047 15.0234 19.3047H9.79688V31.3281C9.98438 31.3594 11.4844 31.375 14.2969 31.375ZM41.3438 49.3516C39.5781 49.3516 38.1094 49.1484 36.9375 48.7422C35.7812 48.3203 34.8672 47.6562 34.1953 46.75C33.5234 45.8438 33.0547 44.7656 32.7891 43.5156C32.5234 42.2656 32.3906 40.7109 32.3906 38.8516V13.75L38.5312 13.3516V38.7344C38.5312 41.0469 38.8047 42.6172 39.3516 43.4453C39.8984 44.2578 40.9609 44.6641 42.5391 44.6641C43.3203 44.6641 44.3125 44.5781 45.5156 44.4062L45.6797 48.7891C45.6641 48.7891 45.4688 48.8281 45.0938 48.9062C44.7344 48.9844 44.3828 49.0469 44.0391 49.0938C43.7109 49.1562 43.2891 49.2109 42.7734 49.2578C42.2578 49.3203 41.7812 49.3516 41.3438 49.3516ZM55.5234 49.4922C53.1328 49.4922 51.1953 48.8359 49.7109 47.5234C48.2422 46.1953 47.5078 44.2891 47.5078 41.8047C47.5078 39.1328 48.3828 37.1562 50.1328 35.875C51.8828 34.5781 54.5234 33.7578 58.0547 33.4141C58.5391 33.3516 59.0625 33.2891 59.625 33.2266C60.1875 33.1641 60.8203 33.1016 61.5234 33.0391C62.2266 32.9766 62.7812 32.9219 63.1875 32.875V31.5156C63.1875 29.9531 62.8281 28.8203 62.1094 28.1172C61.3906 27.3984 60.2969 27.0391 58.8281 27.0391C56.7344 27.0391 54.1484 27.625 51.0703 28.7969C51.0547 28.75 50.7969 28.0391 50.2969 26.6641C49.7969 25.2891 49.5391 24.5859 49.5234 24.5547C52.5547 23.2578 55.8359 22.6094 59.3672 22.6094C62.8359 22.6094 65.3594 23.3672 66.9375 24.8828C68.5156 26.3828 69.3047 28.8203 69.3047 32.1953V49H64.7578C64.7422 48.9375 64.5703 48.4141 64.2422 47.4297C63.9141 46.4453 63.75 45.9219 63.75 45.8594C62.4688 47.1094 61.2109 48.0312 59.9766 48.625C58.7578 49.2031 57.2734 49.4922 55.5234 49.4922ZM57.1875 45.1328C58.6094 45.1328 59.8438 44.7969 60.8906 44.125C61.9531 43.4375 62.7109 42.6094 63.1641 41.6406V36.6719C63.1172 36.6719 62.7031 36.7031 61.9219 36.7656C61.1562 36.8281 60.7422 36.8594 60.6797 36.8594C58.1953 37.0781 56.375 37.5469 55.2188 38.2656C54.0625 38.9844 53.4844 40.1406 53.4844 41.7344C53.4844 42.8281 53.8047 43.6719 54.4453 44.2656C55.0859 44.8438 56 45.1328 57.1875 45.1328ZM85.7812 49.3516C84.0312 49.3516 82.5703 49.1484 81.3984 48.7422C80.2422 48.3203 79.3359 47.6641 78.6797 46.7734C78.0234 45.8828 77.5547 44.8359 77.2734 43.6328C77.0078 42.4141 76.875 40.9141 76.875 39.1328V26.9688H72.6562L72.8906 23.6406L77.2969 23.2422L79.2656 16.2578L83.0156 16.2344V23.2422H89.4141V26.9688H83.0156V39.25C83.0156 41.2031 83.2969 42.5938 83.8594 43.4219C84.4219 44.25 85.4609 44.6641 86.9766 44.6641C87.8672 44.6641 88.8203 44.5859 89.8359 44.4297L90 48.8359C89.9688 48.8359 89.7734 48.875 89.4141 48.9531C89.0703 49.0156 88.7344 49.0703 88.4062 49.1172C88.0938 49.1797 87.6875 49.2344 87.1875 49.2812C86.6875 49.3281 86.2188 49.3516 85.7812 49.3516ZM92.7422 49V45.2734L105.492 27.5078H93.3516V23.2422H112.289V27.4375L100.219 44.5234H112.711V49H92.7422Z" fill="#FFFCFC"/>
</svg>
